<svg width="111" height="110" viewBox="0 0 111 110" fill="none" xmlns="http://www.w3.org/2000/svg">
<path d="M63.608 44.72C65.144 44.72 66.2533 44.3787 66.936 43.696C67.6187 43.0133 68.6853 41.5627 70.136 39.344L85.752 15.536C86.264 14.6827 86.8187 14.128 87.416 13.872C88.0987 13.5307 88.7813 13.36 89.464 13.36H91.64C92.8347 13.36 93.688 13.7013 94.2 14.384C94.7973 14.9813 95.096 15.9627 95.096 17.328V82.48H93.816V17.328C93.816 16.6453 93.6453 16.048 93.304 15.536C93.048 14.9387 92.4933 14.64 91.64 14.64H89.72C89.1227 14.64 88.6107 14.7253 88.184 14.896C87.7573 15.0667 87.288 15.5787 86.776 16.432L71.16 39.984C69.624 42.288 68.4293 43.8667 67.576 44.72C66.808 45.5733 65.4853 46 63.608 46C61.7307 46 60.3653 45.5733 59.512 44.72C58.744 43.8667 57.592 42.288 56.056 39.984L40.44 16.432C39.928 15.5787 39.416 15.0667 38.904 14.896C38.4773 14.7253 37.9653 14.64 37.368 14.64H35.448C34.5947 14.64 34.04 14.9387 33.784 15.536C33.528 16.048 33.4 16.6453 33.4 17.328V82.48H32.12V17.328C32.12 15.9627 32.376 14.9813 32.888 14.384C33.4853 13.7013 34.3387 13.36 35.448 13.36H37.624C38.3067 13.36 38.9893 13.5307 39.672 13.872C40.3547 14.128 40.952 14.6827 41.464 15.536L57.08 39.344C58.5307 41.5627 59.5973 43.0133 60.28 43.696C60.9627 44.3787 62.072 44.72 63.608 44.72ZM42.232 94C43.8533 94 45.0053 93.6587 45.688 92.976C46.456 92.208 46.84 91.0133 46.84 89.392V44.336L54.392 58.288C55.16 59.7387 56.056 60.8053 57.08 61.488C58.1893 62.0853 59.5547 62.384 61.176 62.384H66.296C67.9173 62.384 69.24 62.0853 70.264 61.488C71.3733 60.8053 72.312 59.7387 73.08 58.288L80.632 44.336V89.392C80.632 91.0133 80.9733 92.208 81.656 92.976C82.424 93.6587 83.6187 94 85.24 94H104.952C106.573 94 107.725 93.6587 108.408 92.976C109.176 92.208 109.56 91.0133 109.56 89.392V6.448C109.56 4.82667 109.176 3.67466 108.408 2.992C107.725 2.224 106.573 1.84 104.952 1.84H84.216C82.8507 1.84 81.6987 2.13866 80.76 2.73599C79.9067 3.33333 79.096 4.31466 78.328 5.67999L66.936 26.544C66.5093 27.312 66.1253 27.8667 65.784 28.208C65.528 28.5493 65.144 28.72 64.632 28.72H63.48C62.968 28.72 62.5413 28.5493 62.2 28.208C61.944 27.8667 61.6027 27.312 61.176 26.544L49.656 5.67999C48.888 4.31466 48.0347 3.33333 47.096 2.73599C46.2427 2.13866 45.1333 1.84 43.768 1.84H23.16C21.5387 1.84 20.344 2.224 19.576 2.992C18.8933 3.67466 18.552 4.82667 18.552 6.448V89.392C18.552 91.0133 18.8933 92.208 19.576 92.976C20.344 93.6587 21.5387 94 23.16 94H42.232ZM46.328 94.128L29.688 107.952C29.3467 108.293 28.792 108.592 28.024 108.848C27.3413 109.104 26.5733 109.232 25.72 109.232H6.648C4.6 109.232 3.10667 108.763 2.168 107.824C1.22933 106.885 0.76 105.392 0.76 103.344V20.4C0.76 19.2907 0.888 18.352 1.144 17.584C1.48533 16.816 1.95467 16.176 2.552 15.664L19.064 1.712C19.4907 1.37066 20.0453 1.11466 20.728 0.943993C21.496 0.687996 22.3067 0.559998 23.16 0.559998H43.768C45.3893 0.559998 46.712 0.901329 47.736 1.58399C48.8453 2.26666 49.8693 3.41866 50.808 5.03999L59.512 21.04L60.664 18.992C61.0053 18.3947 61.3467 17.84 61.688 17.328C62.1147 16.7307 62.5413 16.2613 62.968 15.92L79.48 2.09599C80.1627 1.58399 80.8453 1.19999 81.528 0.943993C82.296 0.687996 83.192 0.559998 84.216 0.559998H104.952C107 0.559998 108.493 1.02933 109.432 1.96799C110.371 2.90666 110.84 4.4 110.84 6.448V89.392C110.84 90.5013 110.669 91.44 110.328 92.208C110.072 92.976 109.645 93.616 109.048 94.128L92.408 107.952C92.0667 108.293 91.512 108.592 90.744 108.848C90.0613 109.104 89.2933 109.232 88.44 109.232H68.728C66.5947 109.232 65.0587 108.763 64.12 107.824C63.2667 106.885 62.84 105.392 62.84 103.344V69.552L55.288 75.824C54.6053 76.4213 53.7947 76.8907 52.856 77.232C52.0027 77.488 50.9787 77.616 49.784 77.616H48.12V89.392C48.12 90.5013 47.9493 91.44 47.608 92.208C47.352 92.976 46.9253 93.616 46.328 94.128Z" fill="black"/>
</svg>
