<?xml version="1.0" standalone="no"?>
<!DOCTYPE svg PUBLIC "-//W3C//DTD SVG 20010904//EN"
 "http://www.w3.org/TR/2001/REC-SVG-20010904/DTD/svg10.dtd">
<svg version="1.0" xmlns="http://www.w3.org/2000/svg"
 width="888.000000pt" height="888.000000pt" viewBox="0 0 888.000000 888.000000"
 preserveAspectRatio="xMidYMid meet">
<metadata>
Created by potrace 1.14, written by Peter Selinger 2001-2017
</metadata>
<g transform="translate(0.000000,888.000000) scale(0.100000,-0.100000)"
fill="#000000" stroke="none">
<path d="M1797 8794 c-1 -1 -24 -5 -51 -8 -27 -4 -56 -11 -65 -16 -9 -4 -18
-8 -21 -7 -26 3 -122 -45 -156 -78 -6 -6 -30 -27 -54 -46 -54 -44 -66 -54
-135 -114 -32 -27 -68 -57 -79 -65 -12 -8 -33 -26 -47 -40 -14 -14 -44 -40
-67 -58 -23 -19 -51 -43 -64 -53 -13 -11 -43 -37 -68 -58 -55 -47 -121 -103
-185 -156 -26 -22 -57 -48 -69 -59 -11 -10 -41 -35 -66 -55 -24 -20 -51 -43
-60 -51 -9 -8 -38 -33 -65 -55 -26 -22 -58 -49 -71 -60 -12 -11 -33 -29 -46
-39 -13 -11 -37 -31 -54 -45 -17 -14 -55 -46 -85 -71 -136 -112 -196 -195
-216 -297 -5 -21 -8 -1586 -8 -3478 l0 -3440 24 -75 c32 -103 70 -155 149
-204 23 -14 42 -23 42 -20 0 4 7 0 17 -7 9 -8 17 -12 17 -10 1 2 21 -3 46 -10
36 -11 214 -14 930 -14 l885 0 80 33 c67 27 107 55 250 173 237 196 243 202
269 224 12 11 43 36 67 56 127 104 199 164 243 202 27 23 58 49 70 57 12 8 31
24 42 35 12 11 36 31 54 45 18 14 40 32 49 41 9 8 38 33 66 55 27 21 56 46 65
54 9 8 61 51 115 95 184 148 251 228 280 332 5 15 10 35 13 43 3 8 7 253 9
545 2 291 5 530 6 531 1 1 71 4 154 7 84 3 157 8 163 12 6 3 22 8 35 11 42 7
130 51 182 90 43 33 202 164 229 189 6 6 28 24 49 40 21 17 48 39 61 50 12 11
39 34 60 50 42 34 96 79 174 145 29 25 56 46 60 48 4 1 7 -624 8 -1390 0
-1454 0 -1466 43 -1566 47 -109 114 -160 266 -199 15 -4 426 -8 913 -10 768
-2 894 0 950 13 78 19 155 54 198 91 17 16 43 37 57 48 14 11 32 25 39 32 8 7
58 49 112 94 55 44 112 93 129 107 16 14 65 55 110 91 44 36 82 68 85 71 3 3
57 48 120 100 63 52 126 104 140 116 26 23 197 165 268 222 23 19 51 43 64 54
13 11 39 32 58 47 19 14 42 33 50 41 9 8 46 40 81 71 44 39 73 74 93 114 15
32 29 63 31 69 1 6 5 18 8 26 4 8 9 29 13 45 4 17 8 1565 9 3441 1 3654 4
3482 -46 3592 -28 60 -91 126 -145 152 -118 55 -95 54 -1069 55 -495 0 -931
-3 -970 -8 -74 -8 -185 -44 -185 -58 0 -5 -6 -9 -14 -9 -7 0 -35 -17 -62 -37
-73 -55 -248 -205 -252 -215 -2 -4 -10 -8 -17 -8 -7 0 -15 -4 -17 -9 -1 -5
-64 -59 -138 -121 -197 -164 -221 -184 -234 -195 -6 -6 -49 -42 -96 -80 -47
-38 -87 -72 -90 -76 -4 -5 -132 -112 -214 -179 -10 -8 -23 -19 -30 -25 -6 -5
-38 -32 -71 -60 -33 -27 -62 -52 -65 -55 -3 -3 -27 -24 -55 -45 -69 -55 -131
-119 -163 -168 -15 -23 -29 -44 -32 -47 -5 -5 -25 -40 -62 -109 -12 -23 -26
-41 -30 -41 -5 0 -7 -4 -3 -9 3 -5 -2 -17 -11 -25 -8 -9 -13 -16 -9 -16 4 0
-1 -7 -9 -16 -17 -16 -36 -11 -36 10 0 7 -9 25 -21 40 -11 14 -17 26 -12 26 4
0 4 4 -2 8 -5 4 -21 27 -34 52 -13 25 -38 72 -56 105 -18 33 -45 85 -62 115
-17 30 -45 82 -63 115 -18 33 -40 74 -50 90 -9 17 -39 71 -65 120 -26 50 -60
113 -75 140 -15 28 -43 79 -63 115 -148 274 -203 369 -239 418 -105 142 -212
214 -368 248 -28 6 -1826 14 -1833 8z m1834 -114 c49 -12 68 -20 140 -62 62
-36 160 -153 215 -258 16 -30 31 -57 34 -60 3 -3 17 -27 31 -55 49 -94 64
-120 72 -123 4 -2 7 -8 7 -14 0 -6 20 -46 44 -88 25 -42 59 -103 76 -136 17
-32 49 -90 71 -129 22 -38 45 -81 52 -95 6 -14 14 -27 17 -30 3 -3 16 -25 29
-50 13 -25 36 -67 51 -95 108 -196 131 -238 165 -300 21 -38 41 -74 45 -80 4
-5 25 -44 47 -85 22 -41 52 -95 65 -120 14 -25 49 -88 78 -140 71 -127 108
-184 133 -200 24 -15 180 -22 213 -10 25 10 90 77 109 112 61 115 100 184 107
186 4 2 8 12 8 22 0 10 4 21 9 25 6 3 20 27 33 53 13 26 26 49 29 52 4 3 9 15
13 28 4 12 11 22 16 22 5 0 11 13 15 29 3 16 13 35 21 42 8 6 14 16 14 22 0 5
13 31 29 57 16 27 27 51 24 54 -4 3 -1 6 5 6 7 0 12 4 12 10 0 5 13 32 30 60
16 27 26 50 22 50 -4 0 -2 4 4 8 6 4 28 41 50 82 21 41 41 77 45 80 3 3 15 25
28 50 35 68 95 179 181 335 133 239 181 329 193 358 6 15 15 27 19 27 4 0 8 5
8 10 0 13 86 155 114 188 86 102 165 148 291 168 49 8 1808 9 1848 1 153 -31
241 -119 264 -267 9 -53 8 -6778 -1 -6835 -9 -64 -45 -141 -84 -181 -16 -18
-56 -42 -89 -55 l-58 -24 -895 0 c-492 0 -911 2 -930 4 -19 3 -41 9 -47 14 -7
5 -13 7 -13 3 0 -12 -95 42 -114 65 -23 27 -55 98 -64 142 -3 17 -8 736 -9
1597 -2 861 -4 1693 -5 1849 l-3 285 -75 -139 c-41 -76 -79 -148 -85 -159 -5
-12 -12 -23 -15 -26 -3 -3 -13 -21 -22 -40 -36 -74 -165 -309 -179 -326 -5 -6
-7 -13 -4 -16 3 -3 -1 -11 -10 -18 -8 -7 -15 -16 -15 -19 0 -4 -31 -65 -70
-135 -38 -71 -70 -132 -70 -136 0 -5 -3 -10 -7 -12 -5 -1 -23 -33 -42 -70 -18
-37 -40 -73 -47 -79 -8 -6 -14 -16 -14 -21 0 -10 -17 -31 -66 -81 -48 -50 -89
-80 -140 -104 -99 -45 -157 -51 -484 -51 -302 -1 -380 6 -465 38 -17 6 -30 10
-30 9 0 -2 -20 11 -45 28 -53 36 -113 100 -156 163 -28 41 -50 80 -152 270
-19 36 -47 88 -62 115 -35 63 -93 171 -138 255 -60 113 -84 155 -93 165 -5 5
-9 17 -9 27 0 10 -4 18 -10 18 -5 0 -10 6 -10 14 0 8 -7 22 -16 30 -8 9 -12
16 -8 16 3 0 1 6 -5 14 -12 14 -36 58 -104 189 -22 42 -42 75 -45 73 -2 -3 -5
-834 -6 -1848 -2 -1014 -5 -1850 -7 -1858 -21 -67 -35 -100 -56 -132 -26 -39
-89 -88 -114 -88 -9 0 -19 -3 -23 -7 -3 -4 -16 -9 -29 -11 -49 -11 -1733 -11
-1787 -1 -63 12 -126 38 -156 65 -31 28 -71 112 -79 169 -11 68 -13 6796 -2
6865 23 157 121 243 292 259 38 3 457 6 931 5 669 -1 872 -4 915 -14z"/>
<path d="M2860 7769 c-128 -7 -168 -20 -217 -71 -28 -29 -40 -50 -62 -108 -3
-8 -7 -1214 -8 -2680 l-3 -2666 36 -2 c20 -2 43 0 52 3 16 4 17 195 16 2636
-1 2520 -1 2633 17 2681 36 98 59 109 246 105 188 -3 213 -15 301 -147 35 -52
70 -104 77 -115 8 -11 38 -56 66 -100 28 -44 61 -90 73 -103 11 -13 20 -26 18
-28 -1 -2 74 -119 168 -259 93 -140 170 -259 170 -264 0 -5 4 -11 8 -13 11 -4
192 -276 192 -288 0 -5 3 -10 8 -12 4 -1 40 -52 79 -113 40 -60 76 -114 80
-120 5 -5 60 -89 123 -185 63 -96 118 -176 122 -178 5 -2 8 -9 8 -16 0 -7 9
-21 20 -31 11 -10 20 -22 20 -28 0 -5 14 -26 30 -47 17 -21 30 -42 30 -46 0
-5 9 -20 20 -34 42 -53 120 -161 120 -167 0 -7 7 -15 87 -99 50 -52 68 -63
133 -84 61 -20 95 -25 185 -25 200 0 277 30 370 141 22 26 52 61 68 78 15 17
27 36 27 42 0 7 4 14 8 16 9 3 123 164 187 263 21 33 41 62 44 65 3 3 15 21
25 40 11 19 22 37 26 40 3 3 33 48 68 100 34 52 65 100 69 105 31 40 243 367
243 374 0 5 4 11 9 13 5 2 36 46 70 98 33 52 65 100 70 106 5 6 21 30 36 55
16 24 31 46 34 49 7 6 29 40 38 60 4 8 11 20 16 25 4 6 80 118 167 250 87 132
163 245 169 252 6 7 11 17 11 23 0 5 5 10 10 10 6 0 10 5 10 11 0 6 16 33 35
59 19 26 35 51 35 55 0 3 6 13 13 20 6 8 28 37 47 64 53 76 79 85 254 87 99 2
156 -1 170 -9 34 -19 65 -59 83 -107 17 -42 18 -204 18 -2677 l0 -2632 52 1
51 2 0 2637 c1 2171 -2 2647 -13 2688 -16 60 -63 139 -87 147 -10 3 -18 9 -18
14 0 10 -85 38 -115 39 -167 2 -266 -1 -293 -8 -18 -5 -35 -10 -38 -10 -2 0
-24 -9 -47 -20 -59 -28 -102 -77 -188 -211 -41 -63 -77 -119 -82 -125 -4 -5
-50 -75 -101 -155 -52 -80 -99 -150 -105 -157 -6 -7 -11 -14 -11 -17 0 -3 -49
-79 -108 -168 -59 -90 -139 -212 -177 -271 -39 -59 -80 -120 -92 -135 -13 -15
-23 -30 -23 -34 0 -4 -40 -67 -88 -140 -49 -73 -116 -176 -150 -228 -70 -107
-76 -117 -115 -172 -15 -21 -32 -50 -37 -64 -5 -13 -14 -24 -20 -24 -5 0 -10
-5 -10 -10 0 -6 -29 -54 -65 -106 -36 -52 -65 -98 -65 -100 0 -7 -64 -88 -72
-92 -5 -2 -8 -9 -8 -16 0 -7 -8 -22 -17 -33 -10 -12 -31 -38 -48 -59 -92 -119
-156 -148 -331 -147 -115 0 -124 2 -188 32 -57 28 -77 45 -130 112 -65 83
-185 258 -394 579 -67 102 -125 190 -130 196 -5 5 -15 21 -22 35 -7 13 -16 26
-20 29 -3 3 -17 24 -30 48 -13 23 -27 42 -32 42 -4 0 -8 4 -8 10 0 12 -171
274 -182 278 -5 2 -8 7 -8 12 0 8 -60 104 -78 126 -5 5 -15 21 -22 34 -7 13
-17 29 -22 34 -5 6 -59 88 -120 181 -218 336 -287 440 -295 450 -5 6 -31 46
-58 89 -74 119 -119 158 -230 201 -11 4 -42 9 -70 11 -27 3 -54 5 -60 7 -5 1
-62 0 -125 -4z"/>
</g>
</svg>
